<svg width="48" height="48" viewBox="0 0 48 48" fill="none" xmlns="http://www.w3.org/2000/svg">
<rect width="48" height="48" rx="8" fill="#FFF9EB"/>
<path d="M11.5687 23.9498C11.5687 24.3161 11.8518 24.4327 12.1349 24.5326C12.3347 24.5992 12.5346 24.6325 12.7344 24.6658C14.1665 24.9323 15.5654 25.282 16.9642 25.715C19.7119 26.5643 21.4605 28.3461 22.2765 31.0938C22.7094 32.5426 23.0591 34.0081 23.3422 35.4902C23.4088 35.8732 23.4755 36.3394 24.025 36.4227C24.5079 36.2895 24.5579 35.8399 24.6411 35.4402C24.9076 33.9248 25.2906 32.426 25.7402 30.9439C26.5729 28.2295 28.3547 26.5143 31.0691 25.6817C32.5179 25.232 33.9834 24.8823 35.4655 24.5992C35.8651 24.5326 36.3814 24.4993 36.4147 23.9664C36.448 23.4002 35.8984 23.4002 35.5154 23.3003C35.0824 23.2004 34.6328 23.1338 34.1998 23.0339C32.2681 22.5843 30.3031 22.1679 28.6045 21.0522C26.7394 19.8199 25.9567 17.9215 25.4072 15.8732C25.0741 14.6409 24.841 13.3919 24.5579 12.143C24.4913 11.8265 24.3747 11.4768 23.9584 11.4935C23.592 11.4935 23.4754 11.8265 23.4088 12.1096C23.2756 12.6259 23.1924 13.1588 23.0758 13.675C22.6428 15.6733 22.1932 17.6883 21.0108 19.4202C19.8118 21.1688 17.98 21.9015 16.0317 22.4677C14.7494 22.834 13.4338 23.0838 12.1349 23.3669C11.8518 23.4335 11.5521 23.5501 11.5354 23.9165L11.5687 23.9498Z" fill="#FFA902"/>
<path d="M11.2356 39.204C8.52123 36.0233 7.1557 30.9609 7.1557 24.0167C7.1557 17.0724 8.50458 12.0599 11.219 8.82931C13.9334 5.59866 18.1965 4 23.9917 4C29.7868 4 34.0333 5.61532 36.7644 8.82931C39.4788 12.0433 40.8443 17.1057 40.8443 24.0333C40.8443 30.9609 39.4788 36.0233 36.7644 39.2206C34.05 42.4013 29.7868 44 23.9917 44C18.1965 44 13.95 42.4013 11.219 39.2206L11.2356 39.204ZM31.8684 36.7227C33.8834 34.6411 34.8992 30.4113 34.8992 24.0167C34.8992 17.622 33.8834 13.3589 31.8684 11.2773C29.8535 9.19567 27.2223 8.1632 24.0083 8.1632C20.7943 8.1632 18.1632 9.19567 16.1316 11.2773C14.1166 13.3589 13.1007 17.6053 13.1007 24.0167C13.1007 30.428 14.1166 34.6411 16.1316 36.7227C18.1465 38.8043 20.7777 39.8368 24.0083 39.8368C27.239 39.8368 29.8535 38.8043 31.8684 36.7227Z" fill="black"/>
</svg>
