<svg width="102" height="54" viewBox="0 0 102 54" fill="none" xmlns="http://www.w3.org/2000/svg">
<g clip-path="url(#clip0_59_273)">
<path d="M23.11 41.7699C23.11 41.9899 23.28 42.0599 23.45 42.1199C23.57 42.1599 23.69 42.1799 23.81 42.1999C24.67 42.3599 25.51 42.5699 26.35 42.8299C28 43.3399 29.05 44.4099 29.54 46.0599C29.8 46.9299 30.01 47.8099 30.18 48.6999C30.22 48.9299 30.26 49.2099 30.59 49.2599C30.88 49.1799 30.91 48.9099 30.96 48.6699C31.12 47.7599 31.35 46.8599 31.62 45.9699C32.12 44.3399 33.19 43.3099 34.82 42.8099C35.69 42.5399 36.57 42.3299 37.46 42.1599C37.7 42.1199 38.01 42.0999 38.03 41.7799C38.05 41.4399 37.72 41.4399 37.49 41.3799C37.23 41.3199 36.96 41.2799 36.7 41.2199C35.54 40.9499 34.36 40.6999 33.34 40.0299C32.22 39.2899 31.75 38.1499 31.42 36.9199C31.22 36.1799 31.08 35.4299 30.91 34.6799C30.87 34.4899 30.8 34.2799 30.55 34.2899C30.33 34.2899 30.26 34.4899 30.22 34.6599C30.14 34.9699 30.09 35.2899 30.02 35.5999C29.76 36.7999 29.49 38.0099 28.78 39.0499C28.06 40.0999 26.96 40.5399 25.79 40.8799C25.02 41.0999 24.23 41.2499 23.45 41.4199C23.28 41.4599 23.1 41.5299 23.09 41.7499L23.11 41.7699Z" fill="#FFA902"/>
<path d="M0 0H12.21C14.52 0 16.01 0.54 16.68 1.63C17.35 2.72 17.69 3.98 17.69 5.41C17.69 6.84 17.38 8.14 16.75 9.18C16.12 10.22 15.22 10.78 14.04 10.85C15.29 10.93 16.29 11.52 17.03 12.6C17.77 13.68 18.15 15.11 18.15 16.87C18.15 18.84 17.81 20.46 17.13 21.73C16.45 23 14.99 23.63 12.74 23.63H0V0ZM10.92 9.78C12.12 9.78 12.95 9.42 13.41 8.7C13.87 7.98 14.1 7.05 14.1 5.89C14.1 4.81 13.91 3.96 13.52 3.36C13.14 2.76 12.4 2.46 11.31 2.46H3.59V9.78H10.92ZM11.83 21.14C12.86 21.14 13.57 20.75 13.98 19.97C14.39 19.19 14.59 18.04 14.59 16.52C14.59 15.11 14.34 14.01 13.84 13.21C13.34 12.42 12.44 12.02 11.15 12.02H3.59V21.14H11.83Z" fill="black"/>
<path d="M26.54 23.68C25.83 23.57 25.18 23.3899 24.56 23.1399C23.95 22.8799 23.41 22.5199 22.96 22.0599C22.5 21.5899 22.15 20.99 21.89 20.25C21.63 19.51 21.5 18.62 21.5 17.58C21.5 16.54 21.63 15.68 21.89 14.97C22.15 14.26 22.5 13.68 22.95 13.22C23.4 12.76 23.92 12.41 24.52 12.15C25.11 11.89 25.76 11.72 26.45 11.62C27.14 11.52 27.85 11.47 28.56 11.47H35.35V10.26C35.35 9.01995 35.13 8.02995 34.7 7.27995C34.27 6.52995 33.68 5.97995 32.92 5.63995C32.17 5.29995 31.28 5.12995 30.27 5.12995C29.36 5.12995 28.55 5.28995 27.83 5.60995C27.11 5.92995 26.53 6.43995 26.07 7.11995C25.61 7.80995 25.31 8.71995 25.16 9.86995L21.71 8.95995C21.86 7.82995 22.17 6.86995 22.65 6.07995C23.12 5.28995 23.73 4.64995 24.47 4.14995C25.21 3.64995 26.07 3.27995 27.05 3.04995C28.03 2.81995 29.1 2.69995 30.27 2.69995C32.06 2.69995 33.59 2.94995 34.87 3.44995C36.15 3.94995 37.14 4.76995 37.85 5.89995C38.55 7.02995 38.9 8.53995 38.9 10.43V23.62H35.92L35.64 20.9799C35.52 21.2799 35.29 21.6 34.93 21.93C34.57 22.26 34.1 22.56 33.52 22.85C32.94 23.14 32.25 23.3699 31.45 23.5599C30.65 23.7499 29.74 23.84 28.71 23.84C27.96 23.84 27.24 23.79 26.53 23.68H26.54ZM31.66 21.3099C32.32 21.1499 32.91 20.95 33.43 20.7C33.95 20.45 34.36 20.15 34.69 19.82C35.02 19.48 35.23 19.13 35.34 18.75L35.43 13.48H29.39C28.83 13.48 28.29 13.53 27.77 13.64C27.25 13.75 26.79 13.94 26.39 14.23C25.99 14.52 25.67 14.92 25.44 15.44C25.21 15.96 25.09 16.64 25.09 17.48C25.09 18.32 25.21 19.01 25.46 19.54C25.71 20.07 26.03 20.48 26.44 20.78C26.85 21.08 27.32 21.2799 27.85 21.3899C28.38 21.4999 28.93 21.5599 29.5 21.5599C30.28 21.5599 31.01 21.48 31.67 21.32L31.66 21.3099Z" fill="black"/>
<path d="M42.7 2.88993H45.47L46.24 6.92993V23.6199H42.7V2.88993ZM55.7 11.7899C55.7 9.36993 55.34 7.66993 54.62 6.65993C53.9 5.65993 52.81 5.15993 51.36 5.15993C49.91 5.15993 48.66 5.69993 47.65 6.78993C46.63 7.86993 46.13 9.22993 46.13 10.8699L44.42 9.74993C44.42 8.05993 45.19 6.45993 46.72 4.94993C48.25 3.43993 50.23 2.67993 52.64 2.67993C55.05 2.67993 56.74 3.48993 57.73 5.10993C58.72 6.72993 59.22 8.94993 59.22 11.7799V23.6299H55.7V11.7999V11.7899Z" fill="black"/>
<path d="M64.35 21.09C62.93 19.27 62.22 16.67 62.22 13.29C62.22 9.71997 62.93 7.06997 64.35 5.32997C65.77 3.58997 68.08 2.71997 71.28 2.71997C74.18 2.71997 76.26 3.45997 77.49 4.94997C78.73 6.43997 79.4 8.09997 79.52 9.92997L76.35 10.96C76.29 9.22997 75.83 7.83997 74.96 6.78997C74.09 5.72997 72.86 5.20997 71.26 5.20997C69.66 5.20997 68.31 5.79997 67.31 6.96997C66.31 8.13997 65.81 10.25 65.81 13.3C65.81 16.13 66.31 18.19 67.32 19.45C68.33 20.72 69.64 21.35 71.25 21.35C72.86 21.35 74.07 20.78 74.94 19.65C75.82 18.52 76.28 17.18 76.34 15.63L79.51 16.71C79.39 18.33 78.71 19.92 77.47 21.49C76.23 23.06 74.16 23.83 71.27 23.83C68.07 23.83 65.76 22.92 64.34 21.1L64.35 21.09Z" fill="black"/>
<path d="M84.73 21.1999C83.24 19.4699 82.49 16.7999 82.49 13.2099C82.49 9.61993 83.24 6.94993 84.73 5.23993C86.22 3.52993 88.52 2.67993 91.61 2.67993C94.7 2.67993 97.01 3.52993 98.5 5.23993C99.99 6.94993 100.73 9.60993 100.73 13.2099C100.73 16.8099 99.99 19.4699 98.5 21.1999C97.01 22.9299 94.72 23.7999 91.61 23.7999C88.5 23.7999 86.23 22.9299 84.73 21.1999ZM95.62 19.6299C96.67 18.4899 97.19 16.3599 97.19 13.2299C97.19 10.0999 96.67 7.94993 95.62 6.81993C94.57 5.67993 93.23 5.10993 91.61 5.10993C89.99 5.10993 88.65 5.67993 87.6 6.81993C86.55 7.95993 86.02 10.0999 86.02 13.2299C86.02 16.3599 86.54 18.4899 87.6 19.6299C88.65 20.7699 89.99 21.3399 91.61 21.3399C93.23 21.3399 94.57 20.7699 95.62 19.6299Z" fill="black"/>
<path d="M0 30H9.94C12.93 30 15.06 30.85 16.35 32.55C17.64 34.25 18.28 37.33 18.28 41.8C18.28 46.27 17.63 49.36 16.34 51.07C15.05 52.78 12.91 53.63 9.94 53.63H0V30.01V30ZM8.99 51.14C10.9 51.14 12.33 50.57 13.28 49.42C14.23 48.28 14.7 45.73 14.7 41.79C14.7 37.85 14.23 35.32 13.28 34.19C12.34 33.05 10.91 32.48 8.99 32.48H3.57V51.14H8.99Z" fill="black"/>
<path d="M22.91 50.93C21.28 49.02 20.46 45.98 20.46 41.81C20.46 37.64 21.27 34.63 22.9 32.69C24.53 30.75 27.09 29.79 30.57 29.79C34.05 29.79 36.6 30.76 38.24 32.69C39.87 34.62 40.69 37.66 40.69 41.82C40.69 45.98 39.87 49.02 38.24 50.94C36.61 52.85 34.05 53.81 30.57 53.81C27.09 53.81 24.54 52.85 22.9 50.94L22.91 50.93ZM35.3 49.44C36.51 48.19 37.12 45.65 37.12 41.81C37.12 37.97 36.51 35.41 35.3 34.16C34.09 32.91 32.51 32.29 30.58 32.29C28.65 32.29 27.07 32.91 25.85 34.16C24.64 35.41 24.03 37.96 24.03 41.81C24.03 45.66 24.64 48.19 25.85 49.44C27.06 50.69 28.64 51.31 30.58 51.31C32.52 51.31 34.09 50.69 35.3 49.44Z" fill="black"/>
<path d="M21.5 31.7699C21.16 30.9699 20.74 30.2699 20.24 29.6899C18.88 28.0799 16.87 27.1599 14.23 26.8899V29.4799C15.43 29.7399 16.45 30.2999 17.3 31.1699C18.16 32.0599 18.71 33.6299 18.96 35.8399H19.14C19.54 34.4699 20.12 33.3199 20.87 32.4299C21.06 32.1999 21.27 31.9799 21.5 31.7799V31.7699Z" fill="black"/>
<path d="M47.27 44.7001C47.27 47.1201 47.62 48.8201 48.33 49.8301C49.04 50.8301 50.12 51.3301 51.58 51.3301C53.04 51.3301 54.3 50.8001 55.32 49.7401C56.34 48.6801 56.85 47.3401 56.85 45.7101L58.58 46.7401C58.58 48.4301 57.84 50.0301 56.35 51.5401C54.86 53.0501 52.86 53.8101 50.34 53.8101C47.82 53.8101 46.21 53.0201 45.22 51.4401C44.23 49.8601 43.74 47.6601 43.74 44.8301V32.8601H47.27V44.6901V44.7001ZM56.82 50.1201V32.8801H60.36V53.6201H57.59L56.82 50.1201Z" fill="black"/>
<path d="M64.37 32.89H67.15L67.9 36.9V53.63H64.36V32.89H64.37ZM75.73 36.74C75.05 35.7 74.05 35.18 72.73 35.18C71.23 35.18 70.04 35.68 69.18 36.69C68.32 37.7 67.89 38.85 67.89 40.13L66.52 39.13C66.52 37.35 67.19 35.83 68.54 34.58C69.89 33.33 71.7 32.71 73.99 32.71C76.28 32.71 78 33.5 78.92 35.07C79.84 36.64 80.29 39.14 80.29 42.54H76.76C76.76 39.71 76.42 37.77 75.74 36.73L75.73 36.74Z" fill="black"/>
<path d="M85.19 51.1999C83.7 49.4699 82.95 46.7999 82.95 43.2099C82.95 39.6199 83.7 36.9499 85.19 35.2399C86.68 33.5299 88.98 32.6799 92.07 32.6799C95.16 32.6799 97.47 33.5299 98.96 35.2399C100.45 36.9499 101.19 39.6099 101.19 43.2099C101.19 46.8099 100.45 49.4699 98.96 51.1999C97.47 52.9299 95.18 53.7999 92.07 53.7999C88.96 53.7999 86.69 52.9299 85.19 51.1999ZM96.08 49.6299C97.13 48.4899 97.65 46.3599 97.65 43.2299C97.65 40.0999 97.13 37.9499 96.08 36.8199C95.03 35.6799 93.69 35.1099 92.07 35.1099C90.45 35.1099 89.11 35.6799 88.06 36.8199C87.01 37.9599 86.48 40.0999 86.48 43.2299C86.48 46.3599 87 48.4899 88.06 49.6299C89.11 50.7699 90.45 51.3399 92.07 51.3399C93.69 51.3399 95.03 50.7699 96.08 49.6299Z" fill="black"/>
</g>
<defs>
<clipPath id="clip0_59_273">
<rect width="101.19" height="53.82" fill="white"/>
</clipPath>
</defs>
</svg>
