<svg width="56" height="56" viewBox="0 0 56 56" fill="none" xmlns="http://www.w3.org/2000/svg">
<path d="M28 8.62402C22.7582 8.62402 18.501 12.8869 18.501 18.123C18.501 23.3592 22.7556 27.6276 28 27.6276C33.2418 27.6276 37.499 23.3648 37.499 18.123C37.499 12.8813 33.2443 8.62402 28 8.62402ZM28 26.0666C23.6168 26.0666 20.062 22.4955 20.062 18.1153C20.062 13.7321 23.6248 10.1773 28 10.1773C32.3751 10.1773 35.938 13.7402 35.938 18.1153C35.938 22.4905 32.3751 26.0666 28 26.0666Z" fill="black"/>
<path d="M28 0C12.5587 0 0 12.5587 0 28C0 43.4413 12.5587 56 28 56C32.5008 56 36.7584 54.9282 40.5286 53.0332C42.1528 54.8543 44.5044 56 47.1294 56C52.0212 56 55.9998 52.0242 55.9998 47.1296C55.9998 44.4964 54.8514 42.153 53.033 40.5288C54.9306 36.7554 55.9998 32.5005 55.9998 28.0002C55.9998 12.5589 43.4413 0 28 0ZM54.4467 47.1296C54.4467 51.1628 51.1627 54.4383 47.138 54.4383C43.1133 54.4383 39.8293 51.1543 39.8293 47.1296C39.8293 43.1049 43.1133 39.8209 47.138 39.8209C51.1627 39.8209 54.4467 43.1049 54.4467 47.1296ZM39.1097 43.3862C35.905 45.6968 32.0194 46.9764 28 46.9764C22.6379 46.9764 17.5084 44.6932 13.9237 40.7175C13.8116 40.5971 13.7569 40.4303 13.7569 40.2471C13.7569 35.6069 17.5358 31.8254 22.1842 31.8254H33.8189C38.2978 31.8254 41.9592 35.3391 42.2273 39.7494C40.882 40.6518 39.7991 41.9041 39.1047 43.3834L39.1097 43.3862ZM51.7727 39.5909C50.4219 38.7569 48.8333 38.2675 47.1379 38.2675C45.9266 38.2675 44.7645 38.5053 43.7145 38.9538C43.0692 34.062 38.8856 30.2752 33.8242 30.2752H22.1895C16.6797 30.2752 12.2005 34.7541 12.2005 40.2586C12.2005 40.8246 12.4029 41.3633 12.7747 41.7707C16.6521 46.0829 22.2107 48.5465 28.0081 48.5465C31.6968 48.5465 35.2818 47.5457 38.3961 45.7191C38.3196 46.1895 38.2703 46.657 38.2703 47.1465C38.2703 48.8419 38.7598 50.4305 39.5938 51.7813C36.0856 53.4903 32.1591 54.4555 28.0025 54.4555C13.4229 54.4555 1.55576 42.5968 1.55576 28.0088C1.55303 13.4208 13.4201 1.5537 27.9997 1.5537C42.5793 1.5537 54.4464 13.4124 54.4464 28.0004C54.4464 32.1512 53.4811 36.0777 51.7722 39.5917L51.7727 39.5909Z" fill="black"/>
<path d="M47.9087 43.2466H46.3528V46.3528H43.2466V47.9087H46.3528V51.0232H47.9087V47.9087H51.0232V46.3528H47.9087V43.2466Z" fill="black"/>
</svg>
